<?xml version="1.0" encoding="UTF-8" standalone="no"?>
<!DOCTYPE svg PUBLIC "-//W3C//DTD SVG 20010904//EN"
              "http://www.w3.org/TR/2001/REC-SVG-20010904/DTD/svg10.dtd">

<svg xmlns="http://www.w3.org/2000/svg"
     width="0.953333in" height="0.216667in"
     viewBox="0 0 286 65">
  <path id="Path #1"
        fill="none" stroke="black" stroke-width="1"
        d="M 21.08,55.62
           C 30.06,55.62 37.14,50.59 37.14,41.67
             37.14,33.92 32.23,28.95 21.89,27.47
             13.14,26.30 10.17,22.83 10.17,18.67
             10.17,13.39 14.45,10.55 21.02,10.55
             26.53,10.61 29.64,13.16 31.50,16.06
             32.17,17.23 33.67,17.73 34.84,17.12
             36.02,16.44 36.33,15.08 35.53,13.77
             32.92,9.48 27.97,5.95 21.08,5.95
             11.97,5.95 5.39,10.73 5.39,18.36
             5.39,25.36 11.16,30.58 20.83,31.75
             28.77,32.73 32.36,36.70 32.36,41.73
             32.36,47.75 27.66,51.03 21.08,51.03
             15.12,51.03 10.48,48.48 8.62,44.83
             8.06,43.66 6.81,43.03 5.64,43.34
             4.09,43.72 3.47,45.02 4.09,46.31
             6.70,51.97 13.14,55.62 21.08,55.62 Z
           M 61.34,55.38
           C 65.92,55.38 69.89,53.52 72.62,50.47
             72.62,50.47 72.62,52.58 72.62,52.58
             72.62,54.02 73.55,55.00 74.97,55.00
             76.41,55.00 77.39,54.02 77.39,52.58
             77.39,52.58 77.39,23.44 77.39,23.44
             77.39,22.02 76.41,21.09 74.97,21.09
             73.55,21.09 72.62,22.02 72.62,23.44
             72.62,23.44 72.62,41.80 72.62,41.80
             72.62,46.94 67.91,50.84 61.83,50.84
             55.52,50.84 50.73,47.19 50.73,39.56
             50.73,39.56 50.73,23.44 50.73,23.44
             50.73,22.08 49.69,21.09 48.31,21.09
             46.95,21.09 45.95,22.08 45.95,23.44
             45.95,23.44 45.95,39.56 45.95,39.56
             45.95,49.80 52.59,55.38 61.34,55.38 Z
           M 90.94,55.00
           C 92.42,55.00 93.30,54.12 93.30,52.64
             93.30,52.64 93.30,34.11 93.30,34.11
             93.30,28.34 98.38,24.62 105.31,25.23
             107.36,25.36 109.05,25.73 109.47,23.88
             109.97,21.83 107.73,20.72 103.89,20.72
             99.55,20.72 95.70,22.77 93.30,26.11
             93.30,26.11 93.30,23.44 93.30,23.44
             93.30,21.95 92.42,21.09 90.94,21.09
             89.45,21.09 88.58,21.95 88.58,23.44
             88.58,23.44 88.58,52.64 88.58,52.64
             88.58,54.12 89.45,55.00 90.94,55.00 Z
           M 122.41,69.75
           C 123.22,69.75 123.83,69.27 124.20,68.33
             124.20,68.33 144.30,24.19 144.30,24.19
             144.91,22.83 144.48,21.83 143.11,21.27
             141.75,20.72 140.77,21.09 140.14,22.39
             140.14,22.39 128.61,47.81 128.61,47.81
             128.61,47.81 116.52,22.33 116.52,22.33
             115.95,21.09 114.78,20.72 113.55,21.27
             112.30,21.83 111.81,23.02 112.42,24.25
             112.42,24.25 126.25,52.89 126.25,52.89
             126.25,52.89 126.31,52.95 126.31,52.95
             126.31,52.95 120.11,66.53 120.11,66.53
             119.50,67.89 119.92,68.95 121.30,69.52
             121.66,69.69 122.03,69.75 122.41,69.75 Z
           M 164.52,55.31
           C 169.98,55.31 174.62,52.83 177.42,48.86
             177.42,48.86 177.42,52.64 177.42,52.64
             177.42,54.02 178.41,55.00 179.84,55.00
             181.20,55.00 182.25,54.02 182.25,52.64
             182.25,52.64 182.25,38.08 182.25,38.08
             182.19,28.22 174.81,20.78 165.02,20.78
             155.16,20.78 147.78,28.22 147.78,38.08
             147.78,47.94 154.97,55.31 164.52,55.31 Z
           M 165.02,50.97
           C 157.89,50.97 152.44,45.45 152.44,38.08
             152.44,30.70 157.89,25.11 165.02,25.11
             172.14,25.11 177.55,30.70 177.55,38.08
             177.55,45.45 172.14,50.97 165.02,50.97 Z
           M 194.00,55.00
           C 195.42,55.00 196.36,54.06 196.36,52.64
             196.36,52.64 196.36,34.30 196.36,34.30
             196.36,29.14 201.00,25.23 207.14,25.23
             213.47,25.23 218.23,28.89 218.23,36.53
             218.23,36.53 218.23,52.64 218.23,52.64
             218.23,54.02 219.30,55.00 220.66,55.00
             221.95,55.00 223.02,54.02 223.02,52.64
             223.02,52.64 223.02,36.53 223.02,36.53
             223.02,26.30 216.38,20.72 207.64,20.72
             203.05,20.72 199.02,22.58 196.36,25.61
             196.36,25.61 196.36,23.50 196.36,23.50
             196.36,22.08 195.42,21.09 194.00,21.09
             192.58,21.09 191.58,22.08 191.58,23.50
             191.58,23.50 191.58,52.64 191.58,52.64
             191.58,54.06 192.58,55.00 194.00,55.00 Z
           M 248.95,55.31
           C 252.80,55.31 257.52,53.64 260.23,51.28
             261.23,50.41 261.17,49.11 260.11,48.19
             259.25,47.50 258.02,47.56 257.08,48.30
             255.28,49.86 251.94,51.03 248.95,51.03
             242.08,51.03 236.98,46.38 236.31,39.62
             236.31,39.62 261.36,39.62 261.36,39.62
             262.66,39.62 263.59,38.75 263.59,37.45
             263.59,27.72 257.39,20.78 248.03,20.78
             238.48,20.78 231.78,27.97 231.78,38.08
             231.78,48.19 238.91,55.31 248.95,55.31 Z
           M 248.03,25.05
           C 254.28,25.05 258.50,29.39 259.12,35.66
             259.12,35.66 236.44,35.66 236.44,35.66
             237.30,29.39 241.70,25.05 248.03,25.05 Z
           M 284.84,55.00
           C 284.84,55.00 286.16,55.00 286.16,55.00
             287.64,55.00 288.75,54.02 288.75,52.64
             288.75,51.22 287.83,50.22 286.52,50.22
             286.52,50.22 284.84,50.22 284.84,50.22
             281.00,50.22 278.22,47.25 278.22,43.03
             278.22,43.03 278.22,26.48 278.22,26.48
             278.22,26.48 285.22,26.48 285.22,26.48
             286.52,26.48 287.39,25.61 287.39,24.44
             287.39,23.19 286.52,22.33 285.22,22.33
             285.22,22.33 278.22,22.33 278.22,22.33
             278.22,22.33 278.22,12.72 278.22,12.72
             278.22,11.30 277.22,10.30 275.80,10.30
             274.44,10.30 273.44,11.30 273.44,12.72
             273.44,12.72 273.44,22.33 273.44,22.33
             273.44,22.33 269.41,22.33 269.41,22.33
             268.11,22.33 267.23,23.19 267.23,24.44
             267.23,25.61 268.11,26.48 269.41,26.48
             269.41,26.48 273.44,26.48 273.44,26.48
             273.44,26.48 273.44,43.03 273.44,43.03
             273.44,49.92 278.22,54.94 284.84,55.00 Z" />
</svg>
